<?xml version="1.0" standalone="no"?>
<!DOCTYPE svg PUBLIC "-//W3C//DTD SVG 20010904//EN"
 "http://www.w3.org/TR/2001/REC-SVG-20010904/DTD/svg10.dtd">
<svg version="1.0" xmlns="http://www.w3.org/2000/svg"
 width="251.000000pt" height="251.000000pt" viewBox="0 0 251.000000 251.000000"
 preserveAspectRatio="xMidYMid meet">
<metadata>
Created by potrace 1.11, written by Peter Selinger 2001-2013
</metadata>
<g transform="translate(0.000000,251.000000) scale(0.100000,-0.100000)"
fill="#000000" stroke="none">
<path d="M1118 2369 c-6 -4 -15 -6 -19 -4 -11 8 -193 -43 -265 -74 -252 -107
-433 -271 -568 -515 -31 -57 -86 -189 -93 -225 -2 -14 -6 -28 -8 -32 -3 -4 -7
-24 -11 -45 -3 -22 -10 -59 -14 -84 -13 -68 -9 -273 7 -349 7 -36 16 -79 19
-96 12 -58 63 -181 122 -292 29 -53 141 -190 206 -250 153 -142 402 -262 599
-290 81 -11 317 -8 372 5 28 7 61 15 74 17 92 17 264 95 368 167 82 56 196
163 256 238 106 135 203 355 225 515 8 57 8 310 -1 375 -8 69 -55 214 -96 302
-99 212 -299 417 -511 523 -100 51 -275 106 -360 114 -62 6 -292 6 -302 0z"/>
</g>
</svg>
